<?xml version="1.0" encoding="utf-8"?>
<!-- Generator: Adobe Illustrator 16.0.4, SVG Export Plug-In . SVG Version: 6.00 Build 0)  -->
<!DOCTYPE svg PUBLIC "-//W3C//DTD SVG 1.1//EN" "http://www.w3.org/Graphics/SVG/1.1/DTD/svg11.dtd">
<svg version="1.1" id="Layer_1" xmlns="http://www.w3.org/2000/svg" xmlns:xlink="http://www.w3.org/1999/xlink" x="0px" y="0px"
	 width="612px" height="612px" viewBox="0 0 612 612" enable-background="new 0 0 612 612" xml:space="preserve">
<g>
	<path fill="#FFFFFF" stroke="#3E88CA" stroke-width="24" stroke-miterlimit="10" d="M190.2,290.815v115.301
		c0,30.456,30.457,41.334,18.13,41.334c-11.603,0-54.388-5.802-54.388-55.112v-87.744c0-49.311,42.785-56.562,54.388-56.562
		C220.657,248.031,190.2,258.909,190.2,290.815z M444.006,277.038c0,24.656-35.532,179.839-60.913,179.839
		c-67.439,0-156.634-23.931-156.634-47.136V285.739c0-18.854,56.562-53.662,80.492-70.34c43.51-29.006,74.691-94.271,83.393-83.393
		c39.159,48.585-27.556,108.049-25.38,114.575C367.864,252.382,444.006,252.382,444.006,277.038z"/>
</g>
</svg>
